<svg xmlns="http://www.w3.org/2000/svg" xmlns:xlink="http://www.w3.org/1999/xlink" width="200" zoomAndPan="magnify" viewBox="0 0 150 74.999997" height="100" preserveAspectRatio="xMidYMid meet" version="1.0"><defs><g/></defs><g fill="#5ce1e6" fill-opacity="0.3882"><g transform="translate(2.057407, 52.274374)"><g><path d="M 18.5625 0 L 13.359375 0 L 12.46875 -5.953125 L 6.140625 -5.953125 L 5.25 0 L 0.515625 0 L 5.765625 -32.8125 L 13.3125 -32.8125 Z M 6.796875 -10.40625 L 11.765625 -10.40625 L 9.28125 -27 Z M 6.796875 -10.40625 "/></g></g></g><g fill="#5ce1e6" fill-opacity="0.3882"><g transform="translate(21.13553, 52.274374)"><g><path d="M 0.375 -32.8125 L 16.3125 -32.8125 L 16.3125 -28.125 L 10.921875 -28.125 L 10.921875 0 L 5.765625 0 L 5.765625 -28.125 L 0.375 -28.125 Z M 0.375 -32.8125 "/></g></g></g><g fill="#5ce1e6" fill-opacity="0.3882"><g transform="translate(37.823029, 52.274374)"><g><path d="M 1.875 -32.8125 L 7.03125 -32.8125 L 7.03125 -4.6875 L 15.515625 -4.6875 L 15.515625 0 L 1.875 0 Z M 1.875 -32.8125 "/></g></g></g><g fill="#5ce1e6" fill-opacity="0.3882"><g transform="translate(53.713653, 52.274374)"><g><path d="M 18.5625 0 L 13.359375 0 L 12.46875 -5.953125 L 6.140625 -5.953125 L 5.25 0 L 0.515625 0 L 5.765625 -32.8125 L 13.3125 -32.8125 Z M 6.796875 -10.40625 L 11.765625 -10.40625 L 9.28125 -27 Z M 6.796875 -10.40625 "/></g></g></g><g fill="#5ce1e6" fill-opacity="0.3882"><g transform="translate(72.791776, 52.274374)"><g><path d="M 1.21875 -24.9375 C 1.21875 -27.59375 1.847656 -29.628906 3.109375 -31.046875 C 4.378906 -32.472656 6.28125 -33.1875 8.8125 -33.1875 C 11.34375 -33.1875 13.238281 -32.472656 14.5 -31.046875 C 15.769531 -29.628906 16.40625 -27.59375 16.40625 -24.9375 L 16.40625 -23.90625 L 11.53125 -23.90625 L 11.53125 -25.265625 C 11.53125 -26.453125 11.300781 -27.285156 10.84375 -27.765625 C 10.394531 -28.253906 9.765625 -28.5 8.953125 -28.5 C 8.140625 -28.5 7.503906 -28.253906 7.046875 -27.765625 C 6.597656 -27.285156 6.375 -26.453125 6.375 -25.265625 C 6.375 -24.140625 6.625 -23.144531 7.125 -22.28125 C 7.625 -21.425781 8.25 -20.613281 9 -19.84375 C 9.75 -19.082031 10.550781 -18.316406 11.40625 -17.546875 C 12.269531 -16.785156 13.078125 -15.953125 13.828125 -15.046875 C 14.578125 -14.140625 15.203125 -13.109375 15.703125 -11.953125 C 16.203125 -10.796875 16.453125 -9.4375 16.453125 -7.875 C 16.453125 -5.21875 15.800781 -3.175781 14.5 -1.75 C 13.207031 -0.332031 11.296875 0.375 8.765625 0.375 C 6.234375 0.375 4.316406 -0.332031 3.015625 -1.75 C 1.722656 -3.175781 1.078125 -5.21875 1.078125 -7.875 L 1.078125 -9.890625 L 5.953125 -9.890625 L 5.953125 -7.546875 C 5.953125 -6.359375 6.191406 -5.53125 6.671875 -5.0625 C 7.160156 -4.59375 7.8125 -4.359375 8.625 -4.359375 C 9.4375 -4.359375 10.082031 -4.59375 10.5625 -5.0625 C 11.050781 -5.53125 11.296875 -6.359375 11.296875 -7.546875 C 11.296875 -8.671875 11.046875 -9.660156 10.546875 -10.515625 C 10.046875 -11.378906 9.421875 -12.191406 8.671875 -12.953125 C 7.921875 -13.722656 7.113281 -14.488281 6.25 -15.25 C 5.394531 -16.019531 4.59375 -16.859375 3.84375 -17.765625 C 3.09375 -18.671875 2.46875 -19.703125 1.96875 -20.859375 C 1.46875 -22.015625 1.21875 -23.375 1.21875 -24.9375 Z M 1.21875 -24.9375 "/></g></g></g><g fill="#5ce1e6" fill-opacity="0.3882"><g transform="translate(90.323025, 52.274374)"><g><path d="M 0.65625 -10.640625 L 10.03125 -32.8125 L 15.65625 -32.8125 L 15.65625 -10.640625 L 18.09375 -10.640625 L 18.09375 -5.953125 L 15.65625 -5.953125 L 15.65625 0 L 10.59375 0 L 10.59375 -5.953125 L 0.65625 -5.953125 Z M 10.59375 -10.640625 L 10.59375 -22.96875 L 5.390625 -10.640625 Z M 10.59375 -10.640625 "/></g></g></g><g fill="#5ce1e6" fill-opacity="0.3882"><g transform="translate(108.885523, 52.274374)"><g><path d="M 12.796875 -9.515625 L 16.3125 -32.8125 L 23.484375 -32.8125 L 23.484375 0 L 18.609375 0 L 18.609375 -23.53125 L 15.046875 0 L 10.171875 0 L 6.328125 -23.203125 L 6.328125 0 L 1.828125 0 L 1.828125 -32.8125 L 9 -32.8125 Z M 12.796875 -9.515625 "/></g></g></g><g fill="#5ce1e6" fill-opacity="0.3882"><g transform="translate(134.244896, 52.274374)"><g><path d="M 7.03125 -18.984375 L 14.109375 -18.984375 L 14.109375 -14.296875 L 7.03125 -14.296875 L 7.03125 -4.6875 L 15.9375 -4.6875 L 15.9375 0 L 1.875 0 L 1.875 -32.8125 L 15.9375 -32.8125 L 15.9375 -28.125 L 7.03125 -28.125 Z M 7.03125 -18.984375 "/></g></g></g><g fill="#5ce1e6" fill-opacity="1"><g transform="translate(0.275394, 50.492361)"><g><path d="M 18.5625 0 L 13.359375 0 L 12.46875 -5.953125 L 6.140625 -5.953125 L 5.25 0 L 0.515625 0 L 5.765625 -32.8125 L 13.3125 -32.8125 Z M 6.796875 -10.40625 L 11.765625 -10.40625 L 9.28125 -27 Z M 6.796875 -10.40625 "/></g></g></g><g fill="#5ce1e6" fill-opacity="1"><g transform="translate(19.353517, 50.492361)"><g><path d="M 0.375 -32.8125 L 16.3125 -32.8125 L 16.3125 -28.125 L 10.921875 -28.125 L 10.921875 0 L 5.765625 0 L 5.765625 -28.125 L 0.375 -28.125 Z M 0.375 -32.8125 "/></g></g></g><g fill="#5ce1e6" fill-opacity="1"><g transform="translate(36.041016, 50.492361)"><g><path d="M 1.875 -32.8125 L 7.03125 -32.8125 L 7.03125 -4.6875 L 15.515625 -4.6875 L 15.515625 0 L 1.875 0 Z M 1.875 -32.8125 "/></g></g></g><g fill="#5ce1e6" fill-opacity="1"><g transform="translate(51.931639, 50.492361)"><g><path d="M 18.5625 0 L 13.359375 0 L 12.46875 -5.953125 L 6.140625 -5.953125 L 5.25 0 L 0.515625 0 L 5.765625 -32.8125 L 13.3125 -32.8125 Z M 6.796875 -10.40625 L 11.765625 -10.40625 L 9.28125 -27 Z M 6.796875 -10.40625 "/></g></g></g><g fill="#5ce1e6" fill-opacity="1"><g transform="translate(71.009763, 50.492361)"><g><path d="M 1.21875 -24.9375 C 1.21875 -27.59375 1.847656 -29.628906 3.109375 -31.046875 C 4.378906 -32.472656 6.28125 -33.1875 8.8125 -33.1875 C 11.34375 -33.1875 13.238281 -32.472656 14.5 -31.046875 C 15.769531 -29.628906 16.40625 -27.59375 16.40625 -24.9375 L 16.40625 -23.90625 L 11.53125 -23.90625 L 11.53125 -25.265625 C 11.53125 -26.453125 11.300781 -27.285156 10.84375 -27.765625 C 10.394531 -28.253906 9.765625 -28.5 8.953125 -28.5 C 8.140625 -28.5 7.503906 -28.253906 7.046875 -27.765625 C 6.597656 -27.285156 6.375 -26.453125 6.375 -25.265625 C 6.375 -24.140625 6.625 -23.144531 7.125 -22.28125 C 7.625 -21.425781 8.25 -20.613281 9 -19.84375 C 9.75 -19.082031 10.550781 -18.316406 11.40625 -17.546875 C 12.269531 -16.785156 13.078125 -15.953125 13.828125 -15.046875 C 14.578125 -14.140625 15.203125 -13.109375 15.703125 -11.953125 C 16.203125 -10.796875 16.453125 -9.4375 16.453125 -7.875 C 16.453125 -5.21875 15.800781 -3.175781 14.5 -1.75 C 13.207031 -0.332031 11.296875 0.375 8.765625 0.375 C 6.234375 0.375 4.316406 -0.332031 3.015625 -1.75 C 1.722656 -3.175781 1.078125 -5.21875 1.078125 -7.875 L 1.078125 -9.890625 L 5.953125 -9.890625 L 5.953125 -7.546875 C 5.953125 -6.359375 6.191406 -5.53125 6.671875 -5.0625 C 7.160156 -4.59375 7.8125 -4.359375 8.625 -4.359375 C 9.4375 -4.359375 10.082031 -4.59375 10.5625 -5.0625 C 11.050781 -5.53125 11.296875 -6.359375 11.296875 -7.546875 C 11.296875 -8.671875 11.046875 -9.660156 10.546875 -10.515625 C 10.046875 -11.378906 9.421875 -12.191406 8.671875 -12.953125 C 7.921875 -13.722656 7.113281 -14.488281 6.25 -15.25 C 5.394531 -16.019531 4.59375 -16.859375 3.84375 -17.765625 C 3.09375 -18.671875 2.46875 -19.703125 1.96875 -20.859375 C 1.46875 -22.015625 1.21875 -23.375 1.21875 -24.9375 Z M 1.21875 -24.9375 "/></g></g></g><g fill="#5ce1e6" fill-opacity="1"><g transform="translate(88.541011, 50.492361)"><g><path d="M 0.65625 -10.640625 L 10.03125 -32.8125 L 15.65625 -32.8125 L 15.65625 -10.640625 L 18.09375 -10.640625 L 18.09375 -5.953125 L 15.65625 -5.953125 L 15.65625 0 L 10.59375 0 L 10.59375 -5.953125 L 0.65625 -5.953125 Z M 10.59375 -10.640625 L 10.59375 -22.96875 L 5.390625 -10.640625 Z M 10.59375 -10.640625 "/></g></g></g><g fill="#5ce1e6" fill-opacity="1"><g transform="translate(107.10351, 50.492361)"><g><path d="M 12.796875 -9.515625 L 16.3125 -32.8125 L 23.484375 -32.8125 L 23.484375 0 L 18.609375 0 L 18.609375 -23.53125 L 15.046875 0 L 10.171875 0 L 6.328125 -23.203125 L 6.328125 0 L 1.828125 0 L 1.828125 -32.8125 L 9 -32.8125 Z M 12.796875 -9.515625 "/></g></g></g><g fill="#5ce1e6" fill-opacity="1"><g transform="translate(132.462883, 50.492361)"><g><path d="M 7.03125 -18.984375 L 14.109375 -18.984375 L 14.109375 -14.296875 L 7.03125 -14.296875 L 7.03125 -4.6875 L 15.9375 -4.6875 L 15.9375 0 L 1.875 0 L 1.875 -32.8125 L 15.9375 -32.8125 L 15.9375 -28.125 L 7.03125 -28.125 Z M 7.03125 -18.984375 "/></g></g></g></svg>